<svg xmlns="http://www.w3.org/2000/svg" viewBox="0 0 320 320" role="img" aria-label="WildGuard logo">
  <defs>
    <linearGradient id="bg" x1="0" y1="0" x2="1" y2="1">
      <stop offset="0%" stop-color="#d8f4df"/>
      <stop offset="45%" stop-color="#7cc997"/>
      <stop offset="100%" stop-color="#2e6f49"/>
    </linearGradient>
    <linearGradient id="fg" x1="0" y1="0" x2="1" y2="1">
      <stop offset="0%" stop-color="#fff8e6"/>
      <stop offset="100%" stop-color="#f0d59a"/>
    </linearGradient>
  </defs>
  <circle cx="160" cy="160" r="148" fill="url(#bg)"/>
  <circle cx="160" cy="160" r="124" fill="#163221" opacity="0.18"/>
  <path d="M98 128c0-22 21-42 49-42 20 0 36 10 45 24 7-4 15-6 23-6 25 0 45 19 45 44 0 13-5 25-14 34-7 7-17 13-28 15-8 24-29 43-58 43-30 0-54-20-61-47-23-4-40-22-40-43 0-8 2-16 5-22 4-8 12-15 22-18 4-20 23-36 42-36 6 0 11 1 14 2-8 7-14 17-14 28z" fill="url(#fg)"/>
  <path d="M126 111c8-18 24-28 36-28 15 0 28 6 37 18 11-3 23-3 33 2-9-7-20-13-34-16 0-14-6-26-15-35-15 2-29 9-40 21-10-4-22-5-34-2-13 3-24 10-32 20 14 2 26 8 35 20z" fill="#f6e0aa" opacity="0.85"/>
  <path d="M123 133c7 0 12 5 12 12s-5 12-12 12-12-5-12-12 5-12 12-12zm74 0c7 0 12 5 12 12s-5 12-12 12-12-5-12-12 5-12 12-12z" fill="#163221"/>
  <path d="M147 181c5 7 10 10 13 10 4 0 9-3 14-10" fill="none" stroke="#163221" stroke-width="8" stroke-linecap="round"/>
  <path d="M126 221c10 14 24 21 34 21s24-7 34-21" fill="none" stroke="#163221" stroke-width="7" stroke-linecap="round" opacity="0.8"/>
</svg>
