<svg xmlns="http://www.w3.org/2000/svg" viewBox="0 0 1200 700" role="img" aria-label="Wildlife protection scene">
  <defs>
    <linearGradient id="bg" x1="0" y1="0" x2="0" y2="1">
      <stop offset="0%" stop-color="#2f4b2a"/>
      <stop offset="100%" stop-color="#7f8f58"/>
    </linearGradient>
  </defs>
  <rect width="1200" height="700" fill="url(#bg)"/>
  <path d="M0 476 C 230 418, 426 430, 630 476 S 1012 576, 1200 522 L 1200 700 L 0 700 Z" fill="#2a1d17" opacity="0.22"/>
  <path d="M800 214 L 880 254 L 860 342 L 800 384 L 738 342 L 720 254 Z" fill="#ead9b9" opacity="0.92"/>
  <path d="M800 254 C 766 250, 740 240, 710 220" fill="none" stroke="#ead9b9" stroke-width="12" stroke-linecap="round"/>
  <path d="M800 254 C 838 250, 872 240, 900 220" fill="none" stroke="#ead9b9" stroke-width="12" stroke-linecap="round"/>
  <path d="M800 294 L 800 356" stroke="#a68458" stroke-width="18" stroke-linecap="round"/>
  <path d="M340 426 C 320 350, 330 286, 382 238 C 448 178, 548 168, 618 210" fill="none" stroke="#f1e2c4" stroke-width="16" stroke-linecap="round" opacity="0.9"/>
  <path d="M400 388 C 468 350, 548 340, 640 356" fill="none" stroke="#f1e2c4" stroke-width="14" stroke-linecap="round" opacity="0.9"/>
  <circle cx="1060" cy="146" r="78" fill="#fff2d8" opacity="0.36"/>
</svg>
